<svg width="18" height="18" viewBox="0 0 18 18" fill="none" xmlns="http://www.w3.org/2000/svg">
<path d="M3.75 1.5H14.25C14.4489 1.5 14.6397 1.57902 14.7803 1.71967C14.921 1.86032 15 2.05109 15 2.25V16.6073C15.0001 16.6743 14.9822 16.7402 14.9482 16.7979C14.9142 16.8557 14.8653 16.9033 14.8066 16.9358C14.7479 16.9683 14.6816 16.9844 14.6146 16.9826C14.5476 16.9807 14.4823 16.9609 14.4255 16.9252L9 13.5225L3.5745 16.9245C3.51778 16.9601 3.45254 16.9799 3.38558 16.9818C3.31861 16.9837 3.25236 16.9676 3.19372 16.9352C3.13508 16.9029 3.08618 16.8554 3.05211 16.7977C3.01804 16.74 3.00005 16.6742 3 16.6073V2.25C3 2.05109 3.07902 1.86032 3.21967 1.71967C3.36032 1.57902 3.55109 1.5 3.75 1.5Z" fill="white"/>
</svg>
