<svg width="20" height="17" viewBox="0 0 20 17" fill="none" xmlns="http://www.w3.org/2000/svg">
<path d="M7.83398 10.8333H2.50065C2.05862 10.8333 1.6347 10.6577 1.32214 10.3452C1.00958 10.0326 0.833985 9.60869 0.833985 9.16667V7.41333C0.833761 7.19553 0.876228 6.9798 0.958985 6.77833L3.53899 0.516667C3.60172 0.363961 3.7084 0.233329 3.84549 0.141343C3.98257 0.0493577 4.1439 0.000162892 4.30899 0H18.334C18.555 0 18.767 0.0877973 18.9232 0.244078C19.0795 0.400358 19.1673 0.61232 19.1673 0.833333V9.16667C19.1673 9.38768 19.0795 9.59964 18.9232 9.75592C18.767 9.9122 18.555 10 18.334 10H15.4323C15.2989 9.99997 15.1674 10.032 15.049 10.0933C14.9305 10.1546 14.8285 10.2435 14.7515 10.3525L10.2073 16.7908C10.1499 16.8722 10.0652 16.9304 9.96854 16.9547C9.87191 16.979 9.76978 16.9679 9.68065 16.9233L8.16898 16.1667C7.74357 15.954 7.40371 15.6022 7.20588 15.1697C7.00804 14.7372 6.96415 14.2501 7.08148 13.7892L7.83398 10.8333ZM14.1673 8.67667V1.66667H4.86732L2.50065 7.41333V9.16667H7.83398C8.08782 9.1667 8.33829 9.22472 8.56629 9.33628C8.7943 9.44785 8.9938 9.61002 9.14959 9.81043C9.30538 10.0108 9.41333 10.2442 9.46522 10.4926C9.51711 10.7411 9.51156 10.9982 9.44899 11.2442L8.69649 14.2008C8.67293 14.2931 8.68167 14.3906 8.72124 14.4771C8.76081 14.5637 8.82883 14.6341 8.91399 14.6767L9.46482 14.9517L13.3898 9.39167C13.5982 9.09667 13.8648 8.855 14.1673 8.67667ZM15.834 8.33333H17.5007V1.66667H15.834V8.33333Z" fill="#D0D0D0"/>
</svg>
