<svg width="83" height="71" viewBox="0 0 83 71" fill="none" xmlns="http://www.w3.org/2000/svg">
<path d="M0.716848 63.4132L37.1937 2.46572C39.2202 -0.821906 44.0331 -0.821906 45.8063 2.46572L82.2832 63.4132C84.3096 66.7008 81.7765 71 77.9769 71H5.02315C1.22347 71 -1.30964 66.7008 0.716848 63.4132Z" fill="#EE4444"/>
<path d="M37 58.25C37 57.75 37 57.25 37.2581 56.75C37.5161 56.25 37.7742 56 38.0323 55.5C38.2903 55 38.8064 55 39.3226 54.75C39.8387 54.5 40.3548 54.5 40.871 54.5C41.3871 54.5 42.1613 54.5 42.6774 54.75C43.1936 55 43.7097 55.25 43.9677 55.5C44.2258 55.75 44.4839 56.25 44.7419 56.75C45 57.25 45 57.75 45 58.25C45 58.75 45 59.25 44.7419 59.75C44.4839 60.25 44.2258 60.5 43.9677 61C43.7097 61.5 43.1936 61.5 42.6774 61.75C42.1613 62 41.6452 62 40.871 62C40.0968 62 39.5806 62 39.3226 61.75C39.0645 61.5 38.2903 61.25 38.0323 61C37.7742 60.75 37.5161 60.25 37.2581 59.75C37 59.25 37 58.75 37 58.25ZM44.2258 50.5H38.2903L37.2581 26H45L44.2258 50.5Z" fill="#263238"/>
</svg>
