<svg width="20" height="21" viewBox="0 0 20 21" fill="none" xmlns="http://www.w3.org/2000/svg">
<g clip-path="url(#clip0_19151_58502)">
<path d="M12.1693 7.16602H17.5026C17.9446 7.16602 18.3686 7.34161 18.6811 7.65417C18.9937 7.96673 19.1693 8.39066 19.1693 8.83268V10.586C19.1695 10.8038 19.127 11.0196 19.0443 11.221L16.4651 17.4835C16.4022 17.6362 16.2953 17.7667 16.1581 17.8586C16.0208 17.9504 15.8594 17.9994 15.6943 17.9993H1.66927C1.44826 17.9993 1.2363 17.9116 1.08002 17.7553C0.923735 17.599 0.835938 17.387 0.835938 17.166V8.83268C0.835937 8.61167 0.923735 8.39971 1.08002 8.24343C1.2363 8.08715 1.44826 7.99935 1.66927 7.99935H4.57094C4.70435 7.99938 4.83582 7.96738 4.9543 7.90604C5.07277 7.8447 5.17479 7.75581 5.25177 7.64685L9.79594 1.20768C9.85338 1.12628 9.9381 1.06815 10.0347 1.04384C10.1313 1.01953 10.2335 1.03065 10.3226 1.07518L11.8343 1.83102C12.2597 2.04365 12.5995 2.39544 12.7974 2.82795C12.9952 3.26045 13.0391 3.74762 12.9218 4.20852L12.1693 7.16602ZM5.83594 9.32268V16.3327H15.1359L17.5026 10.586V8.83268H12.1693C11.9154 8.83265 11.665 8.77463 11.437 8.66306C11.209 8.5515 11.0095 8.38933 10.8537 8.18892C10.6979 7.98852 10.5899 7.75518 10.538 7.5067C10.4861 7.25823 10.4917 7.00118 10.5543 6.75518L11.3068 3.79852C11.3303 3.70629 11.3216 3.60878 11.282 3.52221C11.2424 3.43564 11.1744 3.36522 11.0893 3.32268L10.5384 3.04768L6.61344 8.60768C6.4051 8.90268 6.13844 9.14435 5.83594 9.32268ZM4.16927 9.66602H2.5026V16.3327H4.16927V9.66602Z" fill="#D0D0D0"/>
</g>
<defs>
<clipPath id="clip0_19151_58502">
<rect width="20" height="20" fill="white" transform="translate(0 0.5)"/>
</clipPath>
</defs>
</svg>
