<svg width="33" height="32" viewBox="0 0 33 32" fill="none" xmlns="http://www.w3.org/2000/svg">
<g opacity="0.7">
<path d="M5.5 9.33366V12.0003H27.5V9.33366C27.5 8.62641 27.2103 7.94814 26.6945 7.44804C26.1788 6.94794 25.4793 6.66699 24.75 6.66699H8.25C7.52065 6.66699 6.82118 6.94794 6.30546 7.44804C5.78973 7.94814 5.5 8.62641 5.5 9.33366V9.33366Z" fill="#B6FFE5"/>
<path d="M22 6.66667H24.75C25.4793 6.66667 26.1788 6.94762 26.6945 7.44772C27.2103 7.94781 27.5 8.62609 27.5 9.33333V12H5.5V9.33333C5.5 8.62609 5.78973 7.94781 6.30546 7.44772C6.82118 6.94762 7.52065 6.66667 8.25 6.66667H11M22 6.66667V4M22 6.66667H11M11 4V6.66667M5.5 12.6667V25.3333C5.5 26.0406 5.78973 26.7189 6.30546 27.219C6.82118 27.719 7.52065 28 8.25 28H24.75C25.4793 28 26.1788 27.719 26.6945 27.219C27.2103 26.7189 27.5 26.0406 27.5 25.3333V12.6667" stroke="#B6FFE5" stroke-width="2.66667" stroke-linecap="round" stroke-linejoin="round"/>
</g>
</svg>
