<svg width="38" height="38" viewBox="0 0 38 38" fill="none" xmlns="http://www.w3.org/2000/svg">
<rect opacity="0.1" x="0.679688" y="0.357422" width="37.1311" height="37.1311" rx="6.96208" fill="black"/>
<path d="M17.9042 12.8316C17.9042 11.0052 16.4236 9.52459 14.5972 9.52459C12.7708 9.52459 11.2902 11.0052 11.2902 12.8316C11.2902 14.658 12.7708 16.1386 14.5972 16.1386C16.4236 16.1386 17.9042 14.658 17.9042 12.8316ZM12.6826 12.8316C12.6826 11.7742 13.5398 10.917 14.5972 10.917C15.6546 10.917 16.5118 11.7742 16.5118 12.8316C16.5118 13.889 15.6546 14.7461 14.5972 14.7461C13.5398 14.7461 12.6826 13.889 12.6826 12.8316Z" fill="#1F454F" stroke="#1F454F" stroke-width="0.232069"/>
<path d="M15.4932 17.2378L15.5831 17.0676H15.3906H10.5374C9.51204 17.0676 8.68084 17.8988 8.68084 18.9241V19.5043C8.68084 21.4068 10.1232 23.3317 12.6129 24.0076L12.7004 24.0314L12.7446 23.9521C12.9569 23.5713 13.2561 23.2453 13.6153 23.0011L13.8575 22.8365L13.5683 22.7905C11.2922 22.4293 10.0733 20.8949 10.0733 19.5043V18.9241C10.0733 18.6678 10.2811 18.46 10.5374 18.46H14.9757H15.0706L15.0894 18.367C15.1706 17.9673 15.308 17.588 15.4932 17.2378Z" fill="#1F454F" stroke="#1F454F" stroke-width="0.232069"/>
<path d="M16.6946 17.1099L16.6946 17.1099C17.301 16.3757 18.2187 15.9074 19.2456 15.9074C20.2727 15.9074 21.1903 16.3757 21.7967 17.1099C22.0841 17.458 22.3018 17.866 22.4281 18.3125L22.4282 18.3126C22.5092 18.5994 22.5526 18.9019 22.5526 19.2144C22.5526 20.5013 21.8175 21.6163 20.7448 22.1628L20.7448 22.1628C20.3182 22.3801 19.8382 22.5075 19.3301 22.5203C19.302 22.521 19.2739 22.5214 19.2456 22.5214C19.2174 22.5214 19.1893 22.521 19.1613 22.5203L16.6946 17.1099ZM16.6946 17.1099C16.4071 17.458 16.1894 17.866 16.0632 18.3125M16.6946 17.1099L16.1748 18.3441L16.0632 18.3125M16.0632 18.3125C15.982 18.5994 15.9387 18.9019 15.9387 19.2144C15.9387 20.5013 16.6738 21.6163 17.7465 22.1628C18.1731 22.3802 18.653 22.5075 19.1612 22.5203L16.0632 18.3125ZM17.5153 18.3939L17.5153 18.3939C17.7838 17.8287 18.321 17.416 18.9614 17.3208L18.9614 17.3208C19.054 17.307 19.149 17.2998 19.2456 17.2998C19.3424 17.2998 19.4373 17.307 19.5299 17.3208L19.5299 17.3208C20.1702 17.416 20.7075 17.8287 20.976 18.3939C21.0941 18.6424 21.1602 18.9205 21.1602 19.2144C21.1602 19.9954 20.6925 20.6674 20.0214 20.9654L20.0684 21.0714L20.0214 20.9654C19.7845 21.0705 19.522 21.129 19.2456 21.129C18.9692 21.129 18.7068 21.0705 18.4699 20.9654C17.7988 20.6674 17.3311 19.9954 17.3311 19.2144C17.3311 18.9205 17.3972 18.6424 17.5153 18.3939Z" fill="#1F454F" stroke="#1F454F" stroke-width="0.232069"/>
<path d="M25.7318 23.9521L25.776 24.0314L25.8636 24.0076C28.3533 23.3317 29.7956 21.4068 29.7956 19.5043V18.9241C29.7956 17.8988 28.9644 17.0676 27.9391 17.0676H23.0859H22.8934L22.9833 17.2378C23.1684 17.588 23.3059 17.9673 23.387 18.367L23.4059 18.46H23.5008H27.9391C28.1954 18.46 28.4032 18.6678 28.4032 18.9241V19.5043C28.4032 20.8949 27.1843 22.4293 24.9082 22.7905L24.619 22.8364L24.8611 23.0011C25.2203 23.2453 25.5195 23.5713 25.7318 23.9521Z" fill="#1F454F" stroke="#1F454F" stroke-width="0.232069"/>
<path d="M13.8226 24.0362L13.8226 24.0362C13.5119 24.368 13.3215 24.8144 13.3215 25.305V25.8851C13.3215 28.2504 15.5456 30.6426 19.2392 30.6426C22.9329 30.6426 25.157 28.2504 25.157 25.8851V25.305C25.157 24.7475 24.9111 24.2473 24.5223 23.9072L24.4461 23.9943L24.5223 23.9071C24.1959 23.6215 23.7682 23.4484 23.3004 23.4484H15.178C14.6433 23.4484 14.1612 23.6746 13.8226 24.0362ZM14.7139 25.305C14.7139 25.0487 14.9217 24.8408 15.178 24.8408H23.3004C23.5567 24.8408 23.7646 25.0487 23.7646 25.305V25.8851C23.7646 27.471 22.1745 29.2502 19.2392 29.2502C16.3039 29.2502 14.7139 27.471 14.7139 25.8851V25.305Z" fill="#1F454F" stroke="#1F454F" stroke-width="0.232069"/>
<path d="M27.1933 12.8316C27.1933 11.0052 25.7127 9.52459 23.8863 9.52459C22.0598 9.52459 20.5793 11.0052 20.5793 12.8316C20.5793 14.658 22.0598 16.1386 23.8863 16.1386C25.7127 16.1386 27.1933 14.658 27.1933 12.8316ZM21.9717 12.8316C21.9717 11.7742 22.8289 10.917 23.8863 10.917C24.9437 10.917 25.8008 11.7742 25.8008 12.8316C25.8008 13.889 24.9437 14.7461 23.8863 14.7461C22.8289 14.7461 21.9717 13.889 21.9717 12.8316Z" fill="#1F454F" stroke="#1F454F" stroke-width="0.232069"/>
</svg>
