<svg width="38" height="38" viewBox="0 0 38 38" fill="none" xmlns="http://www.w3.org/2000/svg">
<rect opacity="0.1" x="0.226562" y="0.835938" width="37.1311" height="37.1311" rx="6.96208" fill="black"/>
<path d="M14.6344 28.6866C14.0718 28.6866 13.5518 28.3871 13.2695 27.9005L8.80321 20.2023C8.51908 19.7126 8.51908 19.1082 8.80321 18.6185L13.2771 10.9072C13.5595 10.4206 14.0795 10.1211 14.6421 10.1211H23.5858C24.1484 10.1211 24.6684 10.4206 24.9508 10.9073L29.4204 18.612C29.7045 19.1017 29.7045 19.706 29.4204 20.1957L24.9508 27.9004C24.6684 28.3871 24.1484 28.6866 23.5858 28.6866H14.6344ZM24.3166 11.9995C24.0343 11.5128 23.5142 11.2132 22.9515 11.2132H15.2753C14.7126 11.2132 14.1926 11.5127 13.9102 11.9994L10.0704 18.6186C9.78632 19.1082 9.78632 19.7126 10.0704 20.2023L13.9026 26.8083C14.1849 27.295 14.705 27.5945 15.2676 27.5945H22.9515C23.5142 27.5945 24.0343 27.295 24.3166 26.8083L28.1521 20.1957C28.4362 19.706 28.4362 19.1017 28.1521 18.6121L24.3166 11.9995Z" fill="#1F454F"/>
<path d="M17.3399 22.252H16.2605L14.4551 19.5187V22.252H13.3757V17.8207H14.4551L16.2605 20.5666V17.8207H17.3399V22.252ZM21.007 17.8207V18.6855H19.2017V19.6197H20.5525V20.4593H19.2017V22.252H18.1223V17.8207H21.007ZM24.762 17.8207V18.6855H23.5879V22.252H22.5085V18.6855H21.3344V17.8207H24.762Z" fill="#1F454F"/>
</svg>
