<svg width="38" height="38" viewBox="0 0 38 38" fill="none" xmlns="http://www.w3.org/2000/svg">
<rect x="0.335938" y="0.673828" width="37.1311" height="37.1311" rx="6.96208" fill="#9DCEBC"/>
<path d="M12.6484 14.0207L13.9635 18.4032M19.7467 24.1885L24.1312 25.5035M18.5812 19.5708L24.5211 13.6309" stroke="#1F454F" stroke-width="1.74052" stroke-linecap="round" stroke-linejoin="round"/>
<path d="M11.6878 14.0847C12.8271 14.0847 13.7507 13.1611 13.7507 12.0218C13.7507 10.8825 12.8271 9.95898 11.6878 9.95898C10.5486 9.95898 9.625 10.8825 9.625 12.0218C9.625 13.1611 10.5486 14.0847 11.6878 14.0847Z" stroke="#1F454F" stroke-width="1.74052" stroke-linecap="round" stroke-linejoin="round"/>
<path d="M26.1253 14.0847C27.2646 14.0847 28.1882 13.1611 28.1882 12.0218C28.1882 10.8825 27.2646 9.95898 26.1253 9.95898C24.9861 9.95898 24.0625 10.8825 24.0625 12.0218C24.0625 13.1611 24.9861 14.0847 26.1253 14.0847Z" stroke="#1F454F" stroke-width="1.74052" stroke-linecap="round" stroke-linejoin="round"/>
<path d="M26.1253 28.5241C27.2646 28.5241 28.1882 27.6005 28.1882 26.4613C28.1882 25.322 27.2646 24.3984 26.1253 24.3984C24.9861 24.3984 24.0625 25.322 24.0625 26.4613C24.0625 27.6005 24.9861 28.5241 26.1253 28.5241Z" stroke="#1F454F" stroke-width="1.74052" stroke-linecap="round" stroke-linejoin="round"/>
<path d="M15.2976 27.4918C17.861 27.4918 19.939 25.4137 19.939 22.8504C19.939 20.287 17.861 18.209 15.2976 18.209C12.7343 18.209 10.6562 20.287 10.6562 22.8504C10.6562 25.4137 12.7343 27.4918 15.2976 27.4918Z" stroke="#1F454F" stroke-width="1.74052" stroke-linecap="round" stroke-linejoin="round"/>
</svg>
