<svg width="38" height="38" viewBox="0 0 38 38" fill="none" xmlns="http://www.w3.org/2000/svg">
<rect opacity="0.1" x="0.5625" y="0.359375" width="37.1311" height="37.1311" rx="6.96208" fill="black"/>
<g clip-path="url(#clip0_0_1)">
<path d="M23.0547 15.6605C23.0547 15.4874 23.1235 15.3214 23.2459 15.199C23.3683 15.0766 23.5343 15.0078 23.7074 15.0078H26.3182C26.4913 15.0078 26.6573 15.0766 26.7797 15.199C26.9021 15.3214 26.9709 15.4874 26.9709 15.6605V16.9659C26.9709 17.139 26.9021 17.305 26.7797 17.4274C26.6573 17.5498 26.4913 17.6186 26.3182 17.6186H23.7074C23.5343 17.6186 23.3683 17.5498 23.2459 17.4274C23.1235 17.305 23.0547 17.139 23.0547 16.9659V15.6605Z" fill="#1F454F"/>
<path d="M11.3061 11.0918C10.6137 11.0918 9.94961 11.3669 9.45999 11.8565C8.97038 12.3461 8.69531 13.0102 8.69531 13.7026V24.1457C8.69531 24.8381 8.97038 25.5022 9.45999 25.9918C9.94961 26.4814 10.6137 26.7565 11.3061 26.7565H26.9708C27.6632 26.7565 28.3273 26.4814 28.8169 25.9918C29.3065 25.5022 29.5815 24.8381 29.5815 24.1457V13.7026C29.5815 13.0102 29.3065 12.3461 28.8169 11.8565C28.3273 11.3669 27.6632 11.0918 26.9708 11.0918H11.3061ZM28.2762 13.7026V20.2295H10.0007V13.7026C10.0007 13.3564 10.1382 13.0243 10.383 12.7795C10.6278 12.5347 10.9599 12.3972 11.3061 12.3972H26.9708C27.317 12.3972 27.649 12.5347 27.8938 12.7795C28.1386 13.0243 28.2762 13.3564 28.2762 13.7026ZM26.9708 25.4511H11.3061C10.9599 25.4511 10.6278 25.3136 10.383 25.0687C10.1382 24.8239 10.0007 24.4919 10.0007 24.1457V22.8403H28.2762V24.1457C28.2762 24.4919 28.1386 24.8239 27.8938 25.0687C27.649 25.3136 27.317 25.4511 26.9708 25.4511Z" fill="#1F454F"/>
</g>
<defs>
<clipPath id="clip0_0_1">
<rect width="20.8862" height="20.8862" fill="white" transform="translate(8.69531 8.48047)"/>
</clipPath>
</defs>
</svg>
