<svg width="38" height="38" viewBox="0 0 38 38" fill="none" xmlns="http://www.w3.org/2000/svg">
<rect opacity="0.1" x="0.546875" y="0.359375" width="37.1311" height="37.1311" rx="6.96208" fill="black"/>
<path d="M18.7535 28.2081L14.6585 26.0247C13.4911 25.4036 12.5148 24.4764 11.8345 23.3424C11.1542 22.2085 10.7955 20.9108 10.7969 19.5884V10.9687C10.7972 10.6171 10.9371 10.28 11.1857 10.0314C11.4343 9.78276 11.7714 9.64293 12.123 9.64258H25.3841C25.7357 9.64293 26.0728 9.78276 26.3214 10.0314C26.57 10.28 26.7098 10.6171 26.7102 10.9687V19.5884C26.7116 20.9108 26.3529 22.2085 25.6726 23.3424C24.9922 24.4764 24.016 25.4036 22.8486 26.0247L18.7535 28.2081ZM12.123 10.9687V19.5884C12.1219 20.6704 12.4155 21.7322 12.9722 22.66C13.5289 23.5877 14.3278 24.3463 15.2831 24.8544L18.7535 26.705L22.224 24.8551C23.1793 24.3469 23.9783 23.5882 24.535 22.6604C25.0918 21.7325 25.3853 20.6705 25.3841 19.5884V10.9687H12.123Z" fill="#1F454F"/>
</svg>
