<svg width="155" height="58" viewBox="0 0 155 58" fill="none" xmlns="http://www.w3.org/2000/svg">
<rect width="58.6486" height="57.9505" rx="2.60844" fill="black" fill-opacity="0.07"/>
<path fill-rule="evenodd" clip-rule="evenodd" d="M6.28125 10.6239V14.8138H10.6922H15.1032V10.6239V6.43408H10.6922H6.28125V10.6239ZM16.3635 7.03263V7.63118H16.9937H17.6238V8.82828V10.0254H16.9937H16.3635V13.0181V16.0109H15.1032H13.843V16.6094V17.208H13.2128H12.5827V16.6094V16.0109H11.9525H11.3224V16.6094V17.208H9.43196H7.54153V16.6094V16.0109H6.91139H6.28125V18.4051V20.7993H7.54153H8.80182V21.3978V21.9964H8.17168H7.54153V22.5949V23.1935H8.17168H8.80182V23.792V24.3906H8.17168H7.54153V24.9891V25.5877H6.91139H6.28125V26.1862V26.7848H6.91139H7.54153V27.3833V27.9819H8.80182H10.0621V26.1862V24.3906H10.6922H11.3224V26.1862V27.9819H11.9525H12.5827V28.5804V29.179H11.9525H11.3224V29.7775V30.3761H11.9525H12.5827V31.5732V32.7703H11.9525H11.3224V32.1717V31.5732H10.6922H10.0621V33.3688V35.1645H11.3224H12.5827V35.763V36.3616H13.843H15.1032V35.763V35.1645H16.3635H17.6238V35.763V36.3616H16.9937H16.3635V37.5587V38.7558H15.7334H15.1032V38.1572V37.5587H12.5827H10.0621V36.9601V36.3616H9.43196H8.80182V38.1572V39.9529H7.54153H6.28125V40.5514V41.15H7.54153H8.80182V40.5514V39.9529H9.43196H10.0621V40.5514V41.15H10.6922H11.3224V40.5514V39.9529H11.9525H12.5827V40.5514V41.15H13.843H15.1032V40.5514V39.9529H16.3635H17.6238V39.3543V38.7558H18.2539H18.8841V38.1572V37.5587H18.2539H17.6238V36.9601V36.3616H18.8841H20.1444V36.9601V37.5587H22.0348H23.9252V38.1572V38.7558H23.2951H22.6649V39.3543V39.9529H22.0348H21.4047V39.3543V38.7558H20.7745H20.1444V39.3543V39.9529H20.7745H21.4047V41.7485V43.5442H20.7745H20.1444V42.9456V42.3471H19.5142H18.8841V41.7485V41.15H17.6238H16.3635V42.3471V43.5442H16.9937H17.6238V42.9456V42.3471H18.2539H18.8841V42.9456V43.5442H19.5142H20.1444V44.7413V45.9384H18.8841H17.6238V45.3398V44.7413H16.9937H16.3635V45.3398V45.9384H16.9937H17.6238V46.5369V47.1355H18.2539H18.8841V47.734V48.3326H18.2539H17.6238V48.9311V49.5297H16.9937H16.3635V50.1282V50.7268H17.6238H18.8841V49.5297V48.3326H20.1444H21.4047V48.9311V49.5297H22.0348H22.6649V48.9311V48.3326H23.9252H25.1855V48.9311V49.5297H24.5554H23.9252V50.1282V50.7268H24.5554H25.1855V50.1282V49.5297H25.8157H26.4458V50.1282V50.7268H27.7061H28.9664V50.1282V49.5297H30.8568H32.7472V50.1282V50.7268H34.0075H35.2678V50.1282V49.5297H35.8979H36.5281V50.1282V50.7268H37.1582H37.7883V50.1282V49.5297H37.1582H36.5281V48.3326V47.1355H37.7883H39.0486V46.5369V45.9384H38.4185H37.7883V44.7413V43.5442H38.4185H39.0486V44.1427V44.7413H39.6788H40.3089V44.1427V43.5442H39.6788H39.0486V42.3471V41.15H38.4185H37.7883V39.9529V38.7558H38.4185H39.0486V39.3543V39.9529H39.6788H40.3089V40.5514V41.15H40.9391H41.5692V44.1427V47.1355H42.1993H42.8295V48.3326V49.5297H43.4596H44.0898V48.9311V48.3326H44.7199H45.3501V47.734V47.1355H45.9802H46.6103V46.5369V45.9384H47.2405H47.8706V46.5369V47.1355H49.1309H50.3912V47.734V48.3326H49.761H49.1309V49.5297V50.7268H51.0213H52.9118V50.1282V49.5297H52.2816H51.6515V47.734V45.9384H51.0213H50.3912V44.7413V43.5442H51.0213H51.6515V44.1427V44.7413H52.2816H52.9118V44.1427V43.5442H52.2816H51.6515V42.9456V42.3471H51.0213H50.3912V42.9456V43.5442H49.1309H47.8706V41.15V38.7558H48.5008H49.1309V39.9529V41.15H50.3912H51.6515V40.5514V39.9529H52.2816H52.9118V39.3543V38.7558H52.2816H51.6515V39.3543V39.9529H51.0213H50.3912V38.7558V37.5587H49.1309H47.8706V36.9601V36.3616H49.761H51.6515V35.763V35.1645H51.0213H50.3912V33.9674V32.7703H51.0213H51.6515V32.1717V31.5732H51.0213H50.3912V30.9746V30.3761H51.0213H51.6515V29.7775V29.179H50.3912H49.1309V29.7775V30.3761H48.5008H47.8706V30.9746V31.5732H47.2405H46.6103V30.9746V30.3761H45.9802H45.3501V29.7775V29.179H46.6103H47.8706V27.9819V26.7848H49.1309H50.3912V27.3833V27.9819H51.0213H51.6515V27.3833V26.7848H52.2816H52.9118V25.5877V24.3906H51.6515H50.3912V23.792V23.1935H49.761H49.1309V22.5949V21.9964H51.0213H52.9118V21.3978V20.7993H52.2816H51.6515V20.2007V19.6022H51.0213H50.3912V19.0036V18.4051H51.0213H51.6515V17.8065V17.208H52.2816H52.9118V16.6094V16.0109H52.2816H51.6515V16.6094V17.208H51.0213H50.3912V17.8065V18.4051H49.761H49.1309V17.208V16.0109H45.9802H42.8295V16.6094V17.208H41.5692H40.3089V15.4123V13.6167H39.6788H39.0486V12.4196V11.2225H39.6788H40.3089V11.821V12.4196H41.5692H42.8295V11.2225V10.0254H42.1993H41.5692V9.42683V8.82828H40.3089H39.0486V8.22973V7.63118H40.9391H42.8295V7.03263V6.43408H39.6788H36.5281V7.03263V7.63118H37.1582H37.7883V8.22973V8.82828H38.4185H39.0486V9.42683V10.0254H38.4185H37.7883V10.6239V11.2225H37.1582H36.5281V10.0254V8.82828H35.8979H35.2678V7.63118V6.43408H34.0075H32.7472V7.03263V7.63118H32.1171H31.4869V7.03263V6.43408H30.2266H28.9664V7.03263V7.63118H28.3362H27.7061V8.22973V8.82828H27.0759H26.4458V8.22973V7.63118H24.5554H22.6649V7.03263V6.43408H20.7745H18.8841V7.03263V7.63118H18.2539H17.6238V7.03263V6.43408H16.9937H16.3635V7.03263ZM44.0898 10.6239V14.8138H48.5008H52.9118V10.6239V6.43408H48.5008H44.0898V10.6239ZM21.4047 8.82828V10.0254H23.2951H25.1855V10.6239V11.2225H25.8157H26.4458V11.821V12.4196H27.0759H27.7061V11.2225V10.0254H28.9664H30.2266V10.6239V11.2225H31.4869H32.7472V10.6239V10.0254H34.0075H35.2678V11.2225V12.4196H36.5281H37.7883V13.0181V13.6167H38.4185H39.0486V15.4123V17.208H38.4185H37.7883V18.4051V19.6022H38.4185H39.0486V19.0036V18.4051H39.6788H40.3089V19.0036V19.6022H40.9391H41.5692V19.0036V18.4051H42.1993H42.8295V17.8065V17.208H44.0898H45.3501V18.4051V19.6022H44.7199H44.0898V20.2007V20.7993H42.1993H40.3089V21.9964V23.1935H38.4185H36.5281V22.5949V21.9964H37.1582H37.7883V20.7993V19.6022H37.1582H36.5281V20.2007V20.7993H35.2678H34.0075V20.2007V19.6022H33.3774H32.7472V20.2007V20.7993H31.4869H30.2266V21.3978V21.9964H32.7472H35.2678V22.5949V23.1935H34.0075H32.7472V24.3906V25.5877H33.3774H34.0075V24.9891V24.3906H34.6376H35.2678V25.5877V26.7848H35.8979H36.5281V25.5877V24.3906H39.6788H42.8295V23.792V23.1935H43.4596H44.0898V22.5949V21.9964H44.7199H45.3501V21.3978V20.7993H45.9802H46.6103V19.6022V18.4051H47.8706H49.1309V19.6022V20.7993H48.5008H47.8706V21.3978V21.9964H47.2405H46.6103V22.5949V23.1935H45.3501H44.0898V23.792V24.3906H44.7199H45.3501V24.9891V25.5877H44.0898H42.8295V26.1862V26.7848H42.1993H41.5692V26.1862V25.5877H40.9391H40.3089V26.1862V26.7848H38.4185H36.5281V27.3833V27.9819H35.8979H35.2678V29.179V30.3761H35.8979H36.5281V29.7775V29.179H37.1582H37.7883V28.5804V27.9819H38.4185H39.0486V28.5804V29.179H40.3089H41.5692V28.5804V27.9819H42.8295H44.0898V27.3833V26.7848H45.3501H46.6103V26.1862V25.5877H47.2405H47.8706V24.9891V24.3906H48.5008H49.1309V24.9891V25.5877H48.5008H47.8706V26.1862V26.7848H47.2405H46.6103V27.3833V27.9819H45.9802H45.3501V28.5804V29.179H44.7199H44.0898V29.7775V30.3761H43.4596H42.8295V30.9746V31.5732H40.3089H37.7883V32.1717V32.7703H39.0486H40.3089V33.3688V33.9674H39.6788H39.0486V34.5659V35.1645H39.6788H40.3089V36.3616V37.5587H39.0486H37.7883V38.1572V38.7558H37.1582H36.5281V39.3543V39.9529H35.8979H35.2678V41.15V42.3471H34.0075H32.7472V42.9456V43.5442H32.1171H31.4869V44.1427V44.7413H30.8568H30.2266V45.3398V45.9384H29.5965H28.9664V46.5369V47.1355H29.5965H30.2266V47.734V48.3326H29.5965H28.9664V47.734V47.1355H28.3362H27.7061V47.734V48.3326H27.0759H26.4458V47.734V47.1355H25.1855H23.9252V42.9456V38.7558H24.5554H25.1855V37.5587V36.3616H25.8157H26.4458V35.763V35.1645H27.7061H28.9664V35.763V36.3616H29.5965H30.2266V36.9601V37.5587H30.8568H31.4869V38.1572V38.7558H32.1171H32.7472V39.3543V39.9529H31.4869H30.2266V40.5514V41.15H32.1171H34.0075V38.7558V36.3616H32.7472H31.4869V35.763V35.1645H30.8568H30.2266V34.5659V33.9674H29.5965H28.9664V33.3688V32.7703H28.3362H27.7061V33.3688V33.9674H27.0759H26.4458V33.3688V32.7703H27.0759H27.7061V32.1717V31.5732H26.4458H25.1855V30.9746V30.3761H24.5554H23.9252V29.179V27.9819H24.5554H25.1855V26.7848V25.5877H24.5554H23.9252V26.1862V26.7848H22.0348H20.1444V26.1862V25.5877H19.5142H18.8841V26.1862V26.7848H18.2539H17.6238V27.3833V27.9819H18.2539H18.8841V28.5804V29.179H19.5142H20.1444V28.5804V27.9819H21.4047H22.6649V30.9746V33.9674H23.9252H25.1855V34.5659V35.1645H23.9252H22.6649V34.5659V33.9674H22.0348H21.4047V34.5659V35.1645H20.1444H18.8841V33.9674V32.7703H18.2539H17.6238V32.1717V31.5732H16.9937H16.3635V32.7703V33.9674H15.7334H15.1032V34.5659V35.1645H13.843H12.5827V33.9674V32.7703H13.2128H13.843V32.1717V31.5732H15.1032H16.3635V30.9746V30.3761H14.4731H12.5827V29.7775V29.179H13.843H15.1032V28.5804V27.9819H14.4731H13.843V27.3833V26.7848H13.2128H12.5827V25.5877V24.3906H13.843H15.1032V23.792V23.1935H14.4731H13.843V22.5949V21.9964H13.2128H12.5827V22.5949V23.1935H11.9525H11.3224V22.5949V21.9964H10.6922H10.0621V22.5949V23.1935H9.43196H8.80182V22.5949V21.9964H9.43196H10.0621V21.3978V20.7993H10.6922H11.3224V20.2007V19.6022H10.6922H10.0621V19.0036V18.4051H10.6922H11.3224V17.8065V17.208H11.9525H12.5827V18.4051V19.6022H13.843H15.1032V19.0036V18.4051H14.4731H13.843V17.8065V17.208H15.1032H16.3635V17.8065V18.4051H16.9937H17.6238V19.0036V19.6022H16.3635H15.1032V20.2007V20.7993H14.4731H13.843V21.3978V21.9964H14.4731H15.1032V22.5949V23.1935H15.7334H16.3635V21.9964V20.7993H18.2539H20.1444V21.3978V21.9964H20.7745H21.4047V21.3978V20.7993H22.0348H22.6649V21.9964V23.1935H21.4047H20.1444V24.3906V25.5877H22.0348H23.9252V24.9891V24.3906H25.1855H26.4458V23.792V23.1935H27.7061H28.9664V21.9964V20.7993H29.5965H30.2266V19.6022V18.4051H29.5965H28.9664V19.0036V19.6022H28.3362H27.7061V20.7993V21.9964H27.0759H26.4458V21.3978V20.7993H25.8157H25.1855V21.9964V23.1935H24.5554H23.9252V21.9964V20.7993H24.5554H25.1855V20.2007V19.6022H23.2951H21.4047V19.0036V18.4051H20.7745H20.1444V17.8065V17.208H20.7745H21.4047V16.6094V16.0109H20.7745H20.1444V14.8138V13.6167H19.5142H18.8841V14.8138V16.0109H18.2539H17.6238V14.8138V13.6167H18.2539H18.8841V13.0181V12.4196H18.2539H17.6238V11.821V11.2225H18.8841H20.1444V10.6239V10.0254H19.5142H18.8841V8.82828V7.63118H20.1444H21.4047V8.82828ZM31.4869 8.22973V8.82828H30.8568H30.2266V8.22973V7.63118H30.8568H31.4869V8.22973ZM13.7979 10.6239V13.5739H10.6922H7.58654V10.6239V7.67394H10.6922H13.7979V10.6239ZM51.6065 10.6239V13.5739H48.5008H45.3951V10.6239V7.67394H48.5008H51.6065V10.6239ZM8.80182 10.6239V12.4196H10.6922H12.5827V10.6239V8.82828H10.6922H8.80182V10.6239ZM46.6103 10.6239V12.4196H48.5008H50.3912V10.6239V8.82828H48.5008H46.6103V10.6239ZM22.6649 11.821V12.4196H23.9252H25.1855V13.0181V13.6167H24.5554H23.9252V14.2152V14.8138H23.2951H22.6649V14.2152V13.6167H22.0348H21.4047V14.8138V16.0109H22.0348H22.6649V16.6094V17.208H22.0348H21.4047V17.8065V18.4051H22.0348H22.6649V17.8065V17.208H23.2951H23.9252V16.0109V14.8138H24.5554H25.1855V15.4123V16.0109H27.0759H28.9664V16.6094V17.208H27.7061H26.4458V18.4051V19.6022H27.0759H27.7061V19.0036V18.4051H28.3362H28.9664V17.8065V17.208H29.5965H30.2266V17.8065V18.4051H30.8568H31.4869V19.0036V19.6022H32.1171H32.7472V18.4051V17.208H31.4869H30.2266V15.4123V13.6167H30.8568H31.4869V14.8138V16.0109H32.1171H32.7472V14.8138V13.6167H33.3774H34.0075V15.4123V17.208H34.6376H35.2678V16.6094V16.0109H35.8979H36.5281V16.6094V17.208H37.1582H37.7883V16.6094V16.0109H37.1582H36.5281V15.4123V14.8138H37.1582H37.7883V14.2152V13.6167H37.1582H36.5281V14.2152V14.8138H35.8979H35.2678V13.6167V12.4196H34.6376H34.0075V11.821V11.2225H33.3774H32.7472V12.4196V13.6167H32.1171H31.4869V13.0181V12.4196H30.8568H30.2266V11.821V11.2225H29.5965H28.9664V13.0181V14.8138H28.3362H27.7061V14.2152V13.6167H27.0759H26.4458V13.0181V12.4196H25.8157H25.1855V11.821V11.2225H23.9252H22.6649V11.821ZM26.4458 14.2152V14.8138H25.8157H25.1855V14.2152V13.6167H25.8157H26.4458V14.2152ZM41.5692 14.2152V14.8138H42.1993H42.8295V14.2152V13.6167H42.1993H41.5692V14.2152ZM34.0075 19.0036V19.6022H34.6376H35.2678V19.0036V18.4051H34.6376H34.0075V19.0036ZM39.0486 20.2007V20.7993H39.6788H40.3089V20.2007V19.6022H39.6788H39.0486V20.2007ZM11.3224 21.3978V21.9964H11.9525H12.5827V21.3978V20.7993H11.9525H11.3224V21.3978ZM17.6238 23.1935V24.3906H18.2539H18.8841V23.792V23.1935H19.5142H20.1444V22.5949V21.9964H18.8841H17.6238V23.1935ZM28.9664 23.792V24.3906H29.5965H30.2266V25.5877V26.7848H29.5965H28.9664V27.3833V27.9819H28.3362H27.7061V28.5804V29.179H27.0759H26.4458V28.5804V27.9819H25.8157H25.1855V29.179V30.3761H26.4458H27.7061V30.9746V31.5732H28.3362H28.9664V32.1717V32.7703H29.5965H30.2266V31.5732V30.3761H31.4869H32.7472V31.5732V32.7703H32.1171H31.4869V33.9674V35.1645H32.1171H32.7472V33.9674V32.7703H33.3774H34.0075V32.1717V31.5732H34.6376H35.2678V32.7703V33.9674H34.6376H34.0075V35.1645V36.3616H34.6376H35.2678V35.763V35.1645H35.8979H36.5281V35.763V36.3616H37.1582H37.7883V35.1645V33.9674H37.1582H36.5281V32.7703V31.5732H37.1582H37.7883V30.9746V30.3761H37.1582H36.5281V30.9746V31.5732H35.8979H35.2678V30.9746V30.3761H34.6376H34.0075V29.7775V29.179H32.7472H31.4869V27.9819V26.7848H32.1171H32.7472V27.3833V27.9819H34.0075H35.2678V27.3833V26.7848H34.0075H32.7472V26.1862V25.5877H32.1171H31.4869V24.9891V24.3906H30.8568H30.2266V23.792V23.1935H29.5965H28.9664V23.792ZM26.4458 25.5877V26.7848H27.0759H27.7061V25.5877V24.3906H27.0759H26.4458V25.5877ZM13.843 26.1862V26.7848H15.7334H17.6238V26.1862V25.5877H15.7334H13.843V26.1862ZM51.6515 26.1862V26.7848H51.0213H50.3912V26.1862V25.5877H51.0213H51.6515V26.1862ZM30.2266 28.5804V29.179H29.5965H28.9664V28.5804V27.9819H29.5965H30.2266V28.5804ZM6.28125 30.3761V31.5732H6.91139H7.54153V32.1717V32.7703H6.91139H6.28125V33.3688V33.9674H6.91139H7.54153V34.5659V35.1645H8.17168H8.80182V32.7703V30.3761H8.17168H7.54153V29.7775V29.179H6.91139H6.28125V30.3761ZM16.3635 29.7775V30.3761H16.9937H17.6238V30.9746V31.5732H18.2539H18.8841V32.1717V32.7703H20.1444H21.4047V32.1717V31.5732H20.1444H18.8841V30.3761V29.179H17.6238H16.3635V29.7775ZM41.5692 29.7775V30.3761H42.1993H42.8295V29.7775V29.179H42.1993H41.5692V29.7775ZM45.3501 33.3688V35.1645H46.6103H47.8706V34.5659V33.9674H48.5008H49.1309V34.5659V35.1645H48.5008H47.8706V35.763V36.3616H47.2405H46.6103V37.5587V38.7558H45.3501H44.0898V39.3543V39.9529H42.8295H41.5692V38.7558V37.5587H42.8295H44.0898V36.9601V36.3616H44.7199H45.3501V35.763V35.1645H44.0898H42.8295V35.763V36.3616H42.1993H41.5692V35.763V35.1645H42.1993H42.8295V34.5659V33.9674H42.1993H41.5692V33.3688V32.7703H42.1993H42.8295V33.3688V33.9674H43.4596H44.0898V32.7703V31.5732H44.7199H45.3501V33.3688ZM50.3912 32.1717V32.7703H49.1309H47.8706V32.1717V31.5732H49.1309H50.3912V32.1717ZM13.843 33.3688V33.9674H14.4731H15.1032V33.3688V32.7703H14.4731H13.843V33.3688ZM6.28125 36.9601V37.5587H6.91139H7.54153V36.9601V36.3616H6.91139H6.28125V36.9601ZM26.4458 37.5587V38.7558H27.0759H27.7061V39.9529V41.15H27.0759H26.4458V40.5514V39.9529H25.8157H25.1855V42.3471V44.7413H25.8157H26.4458V45.3398V45.9384H27.0759H27.7061V45.3398V44.7413H27.0759H26.4458V43.5442V42.3471H27.7061H28.9664V42.9456V43.5442H29.5965H30.2266V42.9456V42.3471H29.5965H28.9664V41.15V39.9529H29.5965H30.2266V38.7558V37.5587H29.5965H28.9664V36.9601V36.3616H27.7061H26.4458V37.5587ZM28.9664 38.1572V38.7558H28.3362H27.7061V38.1572V37.5587H28.3362H28.9664V38.1572ZM15.1032 39.3543V39.9529H13.843H12.5827V39.3543V38.7558H13.843H15.1032V39.3543ZM37.7883 41.7485V42.3471H37.1582H36.5281V41.7485V41.15H37.1582H37.7883V41.7485ZM46.6103 42.9456V44.7413H44.7199H42.8295V42.9456V41.15H44.7199H46.6103V42.9456ZM6.28125 46.5369V50.7268H10.6922H15.1032V46.5369V42.3471H10.6922H6.28125V46.5369ZM44.0898 42.9456V43.5442H44.7199H45.3501V42.9456V42.3471H44.7199H44.0898V42.9456ZM22.6649 45.3398V47.1355H21.4047H20.1444V46.5369V45.9384H20.7745H21.4047V44.7413V43.5442H22.0348H22.6649V45.3398ZM35.2678 44.1427V44.7413H35.8979H36.5281V45.9384V47.1355H35.8979H35.2678V48.3326V49.5297H34.6376H34.0075V48.9311V48.3326H32.7472H31.4869V47.1355V45.9384H32.1171H32.7472V45.3398V44.7413H33.3774H34.0075V44.1427V43.5442H34.6376H35.2678V44.1427ZM13.7979 46.5369V49.4869H10.6922H7.58654V46.5369V43.5869H10.6922H13.7979V46.5369ZM8.80182 46.5369V48.3326H10.6922H12.5827V46.5369V44.7413H10.6922H8.80182V46.5369ZM32.7472 46.5369V47.1355H34.0075H35.2678V46.5369V45.9384H34.0075H32.7472V46.5369ZM44.0898 46.5369V47.1355H43.4596H42.8295V46.5369V45.9384H43.4596H44.0898V46.5369ZM40.3089 48.9311V49.5297H40.9391H41.5692V48.9311V48.3326H40.9391H40.3089V48.9311ZM46.6103 48.9311V49.5297H45.9802H45.3501V50.1282V50.7268H45.9802H46.6103V50.1282V49.5297H47.2405H47.8706V48.9311V48.3326H47.2405H46.6103V48.9311Z" fill="white"/>
<path d="M75.254 24.604H69.1727V28.2164C69.4268 27.8776 69.802 27.5932 70.2982 27.3632C70.8065 27.1333 71.345 27.0183 71.9138 27.0183C72.9304 27.0183 73.7533 27.2362 74.3826 27.6718C75.024 28.1075 75.4779 28.6582 75.7441 29.3238C76.0225 29.9894 76.1616 30.6913 76.1616 31.4295C76.1616 32.3251 75.9862 33.1238 75.6352 33.8258C75.2963 34.5156 74.782 35.0602 74.0922 35.4595C73.4145 35.8589 72.5794 36.0586 71.587 36.0586C70.2679 36.0586 69.209 35.7318 68.4102 35.0783C67.6115 34.4248 67.1335 33.5595 66.9761 32.4824H68.9911C69.1243 33.0512 69.4208 33.5051 69.8807 33.8439C70.3405 34.1707 70.9154 34.334 71.6052 34.334C72.4644 34.334 73.1059 34.0738 73.5294 33.5535C73.9651 33.0331 74.1829 32.3432 74.1829 31.484C74.1829 30.6126 73.9651 29.947 73.5294 29.4872C73.0938 29.0152 72.4523 28.7792 71.6052 28.7792C71.0122 28.7792 70.51 28.9305 70.0985 29.233C69.6991 29.5235 69.4087 29.9228 69.2271 30.4311H67.2666V22.7886H75.254V24.604ZM78.0436 24.7129V22.8249H81.8195V36.0586H79.7319V24.7129H78.0436ZM84.4083 33.2993V31.7381L90.5077 22.9883H93.0129V31.5022H94.7011V33.2993H93.0129V36.0586H90.9797V33.2993H84.4083ZM91.0705 25.0941L86.7863 31.5022H91.0705V25.0941ZM96.3796 26.0925C96.4522 24.967 96.8818 24.0896 97.6684 23.4603C98.4672 22.831 99.4838 22.5163 100.718 22.5163C101.565 22.5163 102.298 22.6676 102.915 22.9702C103.532 23.2727 103.998 23.6842 104.313 24.2046C104.627 24.725 104.784 25.3119 104.784 25.9654C104.784 26.7158 104.585 27.3572 104.185 27.8897C103.786 28.4222 103.308 28.7792 102.751 28.9607V29.0333C103.465 29.2512 104.022 29.6505 104.421 30.2314C104.821 30.8002 105.02 31.5324 105.02 32.428C105.02 33.142 104.857 33.7773 104.53 34.334C104.204 34.8907 103.719 35.3325 103.078 35.6592C102.437 35.9739 101.668 36.1312 100.773 36.1312C99.4656 36.1312 98.3885 35.7984 97.5414 35.1328C96.7063 34.4551 96.2586 33.4869 96.198 32.2283H98.1949C98.2433 32.8697 98.4914 33.3961 98.9392 33.8076C99.3869 34.207 99.9921 34.4067 100.754 34.4067C101.493 34.4067 102.062 34.207 102.461 33.8076C102.86 33.3961 103.06 32.8697 103.06 32.2283C103.06 31.3811 102.788 30.7821 102.243 30.4311C101.711 30.0681 100.888 29.8865 99.7742 29.8865H99.3022V28.1801H99.7924C100.773 28.168 101.517 28.0046 102.025 27.69C102.546 27.3753 102.806 26.8791 102.806 26.2014C102.806 25.6205 102.618 25.1607 102.243 24.8218C101.868 24.4708 101.335 24.2954 100.646 24.2954C99.9678 24.2954 99.4414 24.4708 99.0662 24.8218C98.6911 25.1607 98.4672 25.5842 98.3946 26.0925H96.3796ZM115.581 24.4224L110.534 36.0586H108.447L113.548 24.6403H106.831V22.8794H115.581V24.4224ZM118.496 33.2449C119.658 32.2404 120.571 31.4174 121.237 30.776C121.915 30.1225 122.478 29.4448 122.925 28.7429C123.373 28.041 123.597 27.339 123.597 26.6371C123.597 25.911 123.421 25.3422 123.071 24.9307C122.732 24.5192 122.193 24.3135 121.455 24.3135C120.741 24.3135 120.184 24.5434 119.785 25.0033C119.398 25.4511 119.192 26.0562 119.168 26.8186H117.171C117.207 25.439 117.619 24.3861 118.405 23.66C119.204 22.9218 120.214 22.5526 121.437 22.5526C122.756 22.5526 123.785 22.9157 124.523 23.6418C125.273 24.368 125.648 25.3361 125.648 26.5463C125.648 27.4177 125.424 28.2588 124.977 29.0696C124.541 29.8684 124.014 30.5884 123.397 31.2299C122.792 31.8592 122.018 32.5913 121.074 33.4264L120.257 34.1525H126.011V35.8771H117.189V34.3704L118.496 33.2449ZM127.793 26.0925C127.866 24.967 128.295 24.0896 129.082 23.4603C129.881 22.831 130.897 22.5163 132.132 22.5163C132.979 22.5163 133.711 22.6676 134.328 22.9702C134.945 23.2727 135.411 23.6842 135.726 24.2046C136.041 24.725 136.198 25.3119 136.198 25.9654C136.198 26.7158 135.998 27.3572 135.599 27.8897C135.2 28.4222 134.721 28.7792 134.165 28.9607V29.0333C134.879 29.2512 135.436 29.6505 135.835 30.2314C136.234 30.8002 136.434 31.5324 136.434 32.428C136.434 33.142 136.271 33.7773 135.944 34.334C135.617 34.8907 135.133 35.3325 134.492 35.6592C133.85 35.9739 133.082 36.1312 132.186 36.1312C130.879 36.1312 129.802 35.7984 128.955 35.1328C128.12 34.4551 127.672 33.4869 127.612 32.2283H129.608C129.657 32.8697 129.905 33.3961 130.353 33.8076C130.8 34.207 131.406 34.4067 132.168 34.4067C132.906 34.4067 133.475 34.207 133.874 33.8076C134.274 33.3961 134.473 32.8697 134.473 32.2283C134.473 31.3811 134.201 30.7821 133.657 30.4311C133.124 30.0681 132.301 29.8865 131.188 29.8865H130.716V28.1801H131.206C132.186 28.168 132.93 28.0046 133.439 27.69C133.959 27.3753 134.219 26.8791 134.219 26.2014C134.219 25.6205 134.032 25.1607 133.657 24.8218C133.281 24.4708 132.749 24.2954 132.059 24.2954C131.381 24.2954 130.855 24.4708 130.48 24.8218C130.105 25.1607 129.881 25.5842 129.808 26.0925H127.793ZM139.751 33.2449C140.913 32.2404 141.827 31.4174 142.493 30.776C143.17 30.1225 143.733 29.4448 144.181 28.7429C144.629 28.041 144.852 27.339 144.852 26.6371C144.852 25.911 144.677 25.3422 144.326 24.9307C143.987 24.5192 143.449 24.3135 142.71 24.3135C141.996 24.3135 141.44 24.5434 141.04 25.0033C140.653 25.4511 140.447 26.0562 140.423 26.8186H138.426C138.463 25.439 138.874 24.3861 139.661 23.66C140.459 22.9218 141.47 22.5526 142.692 22.5526C144.011 22.5526 145.04 22.9157 145.778 23.6418C146.529 24.368 146.904 25.3361 146.904 26.5463C146.904 27.4177 146.68 28.2588 146.232 29.0696C145.796 29.8684 145.27 30.5884 144.653 31.2299C144.048 31.8592 143.273 32.5913 142.329 33.4264L141.512 34.1525H147.267V35.8771H138.444V34.3704L139.751 33.2449ZM148.813 24.7129V22.8249H152.588V36.0586H150.501V24.7129H148.813Z" fill="#FEFEFE"/>
<path d="M70.4755 49.5373C70.3247 49.2468 70.1152 49.029 69.8471 48.8838C69.579 48.7329 69.269 48.6575 68.9171 48.6575C68.5317 48.6575 68.1882 48.7441 67.8866 48.9173C67.585 49.0904 67.3476 49.3362 67.1744 49.6546C67.0069 49.9729 66.9231 50.3416 66.9231 50.7605C66.9231 51.1794 67.0069 51.5509 67.1744 51.8748C67.3476 52.1932 67.585 52.439 67.8866 52.6121C68.1882 52.7853 68.5317 52.8719 68.9171 52.8719C69.4366 52.8719 69.8583 52.7266 70.1823 52.4362C70.5062 52.1457 70.7045 51.752 70.7771 51.2548H68.5904V50.4924H71.7993V51.2381C71.7379 51.6905 71.5759 52.1066 71.3134 52.4865C71.0564 52.8663 70.7185 53.1707 70.2996 53.3997C69.8862 53.6231 69.4254 53.7348 68.9171 53.7348C68.3697 53.7348 67.8698 53.6092 67.4174 53.3578C66.965 53.1009 66.6047 52.7462 66.3366 52.2938C66.0741 51.8413 65.9428 51.3302 65.9428 50.7605C65.9428 50.1908 66.0741 49.6797 66.3366 49.2273C66.6047 48.7748 66.965 48.4229 67.4174 48.1716C67.8754 47.9147 68.3753 47.7862 68.9171 47.7862C69.5371 47.7862 70.0873 47.9398 70.5677 48.247C71.0536 48.5486 71.4055 48.9787 71.6234 49.5373H70.4755ZM76.9724 51.2632C76.9724 51.4364 76.9613 51.5928 76.9389 51.7324H73.4116C73.4395 52.1011 73.5764 52.3971 73.8222 52.6205C74.0679 52.8439 74.3695 52.9557 74.727 52.9557C75.2409 52.9557 75.604 52.7406 75.8162 52.3105H76.8467C76.7071 52.735 76.453 53.0841 76.0843 53.3578C75.7213 53.6259 75.2688 53.76 74.727 53.76C74.2858 53.76 73.8892 53.6622 73.5373 53.4667C73.191 53.2657 72.9173 52.9864 72.7162 52.6289C72.5207 52.2658 72.423 51.8469 72.423 51.3721C72.423 50.8974 72.5179 50.4812 72.7078 50.1238C72.9033 49.7607 73.1742 49.4814 73.5205 49.2859C73.8724 49.0904 74.2746 48.9927 74.727 48.9927C75.1627 48.9927 75.5509 49.0876 75.8916 49.2775C76.2323 49.4675 76.4976 49.7356 76.6876 50.0819C76.8775 50.4226 76.9724 50.8164 76.9724 51.2632ZM75.9754 50.9616C75.9698 50.6097 75.8441 50.3276 75.5984 50.1154C75.3526 49.9031 75.0482 49.797 74.6851 49.797C74.3556 49.797 74.0735 49.9031 73.8389 50.1154C73.6043 50.322 73.4647 50.6041 73.42 50.9616H75.9754ZM79.0267 49.8473V52.4027C79.0267 52.5758 79.0658 52.7015 79.144 52.7797C79.2278 52.8523 79.3674 52.8886 79.5629 52.8886H80.1494V53.6846H79.3953C78.9653 53.6846 78.6357 53.584 78.4067 53.3829C78.1777 53.1819 78.0632 52.8551 78.0632 52.4027V49.8473H77.5186V49.0681H78.0632V47.9202H79.0267V49.0681H80.1494V49.8473H79.0267ZM82.9548 48.4481V47.5767H84.6975V53.6846H83.734V48.4481H82.9548ZM86.0096 50.5511C86.0096 49.5848 86.1716 48.8307 86.4956 48.2889C86.8251 47.7415 87.3893 47.4678 88.188 47.4678C88.9867 47.4678 89.5481 47.7415 89.872 48.2889C90.2016 48.8307 90.3664 49.5848 90.3664 50.5511C90.3664 51.5285 90.2016 52.2938 89.872 52.8467C89.5481 53.3941 88.9867 53.6678 88.188 53.6678C87.3893 53.6678 86.8251 53.3941 86.4956 52.8467C86.1716 52.2938 86.0096 51.5285 86.0096 50.5511ZM89.428 50.5511C89.428 50.0986 89.3973 49.716 89.3358 49.4032C89.28 49.0904 89.1627 48.8363 88.9839 48.6408C88.8052 48.4397 88.5399 48.3392 88.188 48.3392C87.8361 48.3392 87.5708 48.4397 87.392 48.6408C87.2133 48.8363 87.0932 49.0904 87.0318 49.4032C86.9759 49.716 86.948 50.0986 86.948 50.5511C86.948 51.0202 86.9759 51.414 87.0318 51.7324C87.0876 52.0508 87.2049 52.3077 87.3837 52.5032C87.568 52.6987 87.8361 52.7965 88.188 52.7965C88.5399 52.7965 88.8052 52.6987 88.9839 52.5032C89.1683 52.3077 89.2884 52.0508 89.3442 51.7324C89.4001 51.414 89.428 51.0202 89.428 50.5511ZM91.2262 49.0513C91.2262 48.6436 91.3435 48.3252 91.5781 48.0962C91.8183 47.8616 92.1255 47.7443 92.4997 47.7443C92.874 47.7443 93.1784 47.8616 93.413 48.0962C93.6531 48.3252 93.7732 48.6436 93.7732 49.0513C93.7732 49.4591 93.6531 49.7802 93.413 50.0148C93.1784 50.2494 92.874 50.3667 92.4997 50.3667C92.1255 50.3667 91.8183 50.2494 91.5781 50.0148C91.3435 49.7802 91.2262 49.4591 91.2262 49.0513ZM96.337 47.8532L92.994 53.6846H92.0557L95.3986 47.8532H96.337ZM92.4997 48.3224C92.1478 48.3224 91.9719 48.5654 91.9719 49.0513C91.9719 49.5429 92.1478 49.7886 92.4997 49.7886C92.6673 49.7886 92.7958 49.73 92.8851 49.6127C92.9801 49.4898 93.0276 49.3027 93.0276 49.0513C93.0276 48.5654 92.8516 48.3224 92.4997 48.3224ZM94.6362 52.4781C94.6362 52.0703 94.7535 51.752 94.9881 51.5229C95.2283 51.2884 95.5355 51.1711 95.9097 51.1711C96.2784 51.1711 96.58 51.2884 96.8146 51.5229C97.0548 51.752 97.1749 52.0703 97.1749 52.4781C97.1749 52.8858 97.0548 53.207 96.8146 53.4416C96.58 53.6762 96.2784 53.7935 95.9097 53.7935C95.5355 53.7935 95.2283 53.6762 94.9881 53.4416C94.7535 53.207 94.6362 52.8858 94.6362 52.4781ZM95.9013 51.7492C95.5494 51.7492 95.3735 51.9921 95.3735 52.4781C95.3735 52.964 95.5494 53.207 95.9013 53.207C96.2532 53.207 96.4292 52.964 96.4292 52.4781C96.4292 51.9921 96.2532 51.7492 95.9013 51.7492ZM102.233 47.8616C102.853 47.8616 103.395 47.9817 103.858 48.2219C104.328 48.4565 104.688 48.7972 104.939 49.244C105.196 49.6853 105.325 50.202 105.325 50.794C105.325 51.3861 105.196 51.9 104.939 52.3357C104.688 52.7713 104.328 53.1065 103.858 53.3411C103.395 53.5701 102.853 53.6846 102.233 53.6846H100.331V47.8616H102.233ZM102.233 52.9054C102.914 52.9054 103.437 52.7211 103.8 52.3524C104.163 51.9838 104.344 51.4643 104.344 50.794C104.344 50.1182 104.163 49.5903 103.8 49.2105C103.437 48.8307 102.914 48.6408 102.233 48.6408H101.286V52.9054H102.233ZM106.757 48.4565C106.584 48.4565 106.439 48.3978 106.321 48.2805C106.204 48.1632 106.146 48.018 106.146 47.8448C106.146 47.6717 106.204 47.5265 106.321 47.4092C106.439 47.2919 106.584 47.2332 106.757 47.2332C106.925 47.2332 107.067 47.2919 107.184 47.4092C107.302 47.5265 107.36 47.6717 107.36 47.8448C107.36 48.018 107.302 48.1632 107.184 48.2805C107.067 48.3978 106.925 48.4565 106.757 48.4565ZM107.226 49.0681V53.6846H106.271V49.0681H107.226ZM110.156 53.76C109.793 53.76 109.466 53.6957 109.176 53.5673C108.891 53.4332 108.665 53.2545 108.497 53.0311C108.33 52.802 108.24 52.5479 108.229 52.2686H109.218C109.234 52.4641 109.327 52.6289 109.494 52.7629C109.667 52.8914 109.882 52.9557 110.139 52.9557C110.407 52.9557 110.614 52.9054 110.759 52.8048C110.91 52.6987 110.985 52.5647 110.985 52.4027C110.985 52.2295 110.902 52.1011 110.734 52.0173C110.572 51.9335 110.312 51.8413 109.955 51.7408C109.609 51.6458 109.327 51.5537 109.109 51.4643C108.891 51.3749 108.701 51.2381 108.539 51.0538C108.383 50.8694 108.304 50.6265 108.304 50.3248C108.304 50.0791 108.377 49.8557 108.522 49.6546C108.667 49.4479 108.874 49.2859 109.142 49.1686C109.416 49.0513 109.729 48.9927 110.081 48.9927C110.606 48.9927 111.027 49.1267 111.346 49.3948C111.67 49.6574 111.843 50.0176 111.865 50.4757H110.91C110.893 50.269 110.81 50.1042 110.659 49.9813C110.508 49.8584 110.304 49.797 110.047 49.797C109.796 49.797 109.603 49.8445 109.469 49.9394C109.335 50.0344 109.268 50.1601 109.268 50.3165C109.268 50.4393 109.313 50.5427 109.402 50.6265C109.491 50.7102 109.6 50.7773 109.729 50.8275C109.857 50.8722 110.047 50.9309 110.298 51.0035C110.634 51.0929 110.907 51.185 111.12 51.28C111.337 51.3693 111.525 51.5034 111.681 51.6821C111.837 51.8609 111.918 52.0983 111.924 52.3943C111.924 52.6568 111.851 52.8914 111.706 53.0981C111.561 53.3048 111.354 53.4667 111.086 53.584C110.824 53.7013 110.514 53.76 110.156 53.76ZM112.638 51.3721C112.638 50.8974 112.732 50.4812 112.922 50.1238C113.118 49.7607 113.386 49.4814 113.727 49.2859C114.067 49.0904 114.458 48.9927 114.9 48.9927C115.458 48.9927 115.919 49.1267 116.282 49.3948C116.651 49.6574 116.899 50.0344 117.028 50.5259H115.997C115.913 50.2969 115.779 50.1182 115.595 49.9897C115.411 49.8612 115.179 49.797 114.9 49.797C114.509 49.797 114.196 49.9366 113.961 50.2159C113.732 50.4896 113.618 50.875 113.618 51.3721C113.618 51.8693 113.732 52.2575 113.961 52.5367C114.196 52.816 114.509 52.9557 114.9 52.9557C115.453 52.9557 115.819 52.7127 115.997 52.2267H117.028C116.894 52.6959 116.642 53.0702 116.274 53.3494C115.905 53.6231 115.447 53.76 114.9 53.76C114.458 53.76 114.067 53.6622 113.727 53.4667C113.386 53.2657 113.118 52.9864 112.922 52.6289C112.732 52.2658 112.638 51.8469 112.638 51.3721ZM119.982 53.76C119.546 53.76 119.153 53.6622 118.801 53.4667C118.449 53.2657 118.172 52.9864 117.971 52.6289C117.77 52.2658 117.67 51.8469 117.67 51.3721C117.67 50.9029 117.773 50.4868 117.98 50.1238C118.186 49.7607 118.468 49.4814 118.826 49.2859C119.183 49.0904 119.583 48.9927 120.024 48.9927C120.465 48.9927 120.865 49.0904 121.222 49.2859C121.58 49.4814 121.862 49.7607 122.068 50.1238C122.275 50.4868 122.378 50.9029 122.378 51.3721C122.378 51.8413 122.272 52.2575 122.06 52.6205C121.848 52.9836 121.557 53.2657 121.189 53.4667C120.826 53.6622 120.423 53.76 119.982 53.76ZM119.982 52.9305C120.228 52.9305 120.457 52.8719 120.669 52.7546C120.887 52.6373 121.063 52.4613 121.197 52.2267C121.331 51.9921 121.398 51.7073 121.398 51.3721C121.398 51.037 121.334 50.7549 121.205 50.5259C121.077 50.2913 120.907 50.1154 120.694 49.9981C120.482 49.8808 120.253 49.8221 120.007 49.8221C119.761 49.8221 119.532 49.8808 119.32 49.9981C119.114 50.1154 118.949 50.2913 118.826 50.5259C118.703 50.7549 118.642 51.037 118.642 51.3721C118.642 51.8693 118.767 52.2547 119.019 52.5284C119.276 52.7965 119.597 52.9305 119.982 52.9305ZM127.503 49.0681V53.6846H126.548V53.14C126.397 53.3299 126.199 53.4807 125.953 53.5924C125.713 53.6985 125.456 53.7516 125.183 53.7516C124.819 53.7516 124.493 53.6762 124.202 53.5254C123.917 53.3746 123.691 53.1511 123.524 52.8551C123.362 52.5591 123.281 52.2016 123.281 51.7827V49.0681H124.227V51.6402C124.227 52.0536 124.331 52.372 124.537 52.5954C124.744 52.8132 125.026 52.9221 125.384 52.9221C125.741 52.9221 126.023 52.8132 126.23 52.5954C126.442 52.372 126.548 52.0536 126.548 51.6402V49.0681H127.503ZM131.093 48.9927C131.456 48.9927 131.78 49.0681 132.065 49.2189C132.355 49.3697 132.581 49.5931 132.743 49.8892C132.905 50.1852 132.986 50.5427 132.986 50.9616V53.6846H132.04V51.104C132.04 50.6907 131.936 50.3751 131.73 50.1573C131.523 49.9338 131.241 49.8221 130.883 49.8221C130.526 49.8221 130.241 49.9338 130.029 50.1573C129.822 50.3751 129.719 50.6907 129.719 51.104V53.6846H128.764V49.0681H129.719V49.5959C129.875 49.406 130.073 49.258 130.314 49.1519C130.559 49.0457 130.819 48.9927 131.093 48.9927ZM135.319 49.8473V52.4027C135.319 52.5758 135.358 52.7015 135.436 52.7797C135.52 52.8523 135.66 52.8886 135.855 52.8886H136.442V53.6846H135.688C135.257 53.6846 134.928 53.584 134.699 53.3829C134.47 53.1819 134.355 52.8551 134.355 52.4027V49.8473H133.811V49.0681H134.355V47.9202H135.319V49.0681H136.442V49.8473H135.319Z" fill="#CCFD50"/>
<path d="M69.2858 12.491L67.9452 10.1618H67.2163V12.491H66.2612V6.66799H68.272C68.7188 6.66799 69.0959 6.74619 69.4031 6.90259C69.7159 7.05898 69.9477 7.26844 70.0985 7.53097C70.2549 7.79349 70.3331 8.08673 70.3331 8.4107C70.3331 8.79052 70.2214 9.13682 69.9979 9.44962C69.7801 9.75682 69.4422 9.96628 68.9842 10.078L70.4252 12.491H69.2858ZM67.2163 9.39935H68.272C68.6295 9.39935 68.8976 9.30998 69.0763 9.13124C69.2607 8.9525 69.3528 8.71232 69.3528 8.4107C69.3528 8.10908 69.2634 7.87448 69.0847 7.70691C68.906 7.53376 68.6351 7.44718 68.272 7.44718H67.2163V9.39935ZM72.5101 7.4388V9.14799H74.5209V9.92718H72.5101V11.7118H74.7722V12.491H71.555V6.65962H74.7722V7.4388H72.5101ZM79.3754 6.66799V7.44718H76.9038V9.16475H78.8309V9.94394H76.9038V12.491H75.9487V6.66799H79.3754ZM83.6874 6.66799V7.44718H81.2157V9.16475H83.1428V9.94394H81.2157V12.491H80.2606V6.66799H83.6874ZM85.5277 7.4388V9.14799H87.5385V9.92718H85.5277V11.7118H87.7898V12.491H84.5725V6.65962H87.7898V7.4388H85.5277ZM91.9909 12.491L90.6503 10.1618H89.9214V12.491H88.9663V6.66799H90.9771C91.4239 6.66799 91.801 6.74619 92.1082 6.90259C92.421 7.05898 92.6528 7.26844 92.8036 7.53097C92.96 7.79349 93.0382 8.08673 93.0382 8.4107C93.0382 8.79052 92.9264 9.13682 92.703 9.44962C92.4852 9.75682 92.1473 9.96628 91.6892 10.078L93.1303 12.491H91.9909ZM89.9214 9.39935H90.9771C91.3346 9.39935 91.6027 9.30998 91.7814 9.13124C91.9657 8.9525 92.0579 8.71232 92.0579 8.4107C92.0579 8.10908 91.9685 7.87448 91.7898 7.70691C91.611 7.53376 91.3401 7.44718 90.9771 7.44718H89.9214V9.39935ZM97.7706 11.3012H95.3325L94.9135 12.491H93.9165L96.0027 6.65962H97.1087L99.1949 12.491H98.1895L97.7706 11.3012ZM97.5025 10.522L96.5557 7.81583L95.6006 10.522H97.5025ZM101.057 11.7202H103.026V12.491H100.102V6.66799H101.057V11.7202ZM105.683 9.56691C105.683 8.99718 105.814 8.4861 106.077 8.03367C106.345 7.58124 106.705 7.22935 107.157 6.97799C107.615 6.72106 108.115 6.59259 108.657 6.59259C109.277 6.59259 109.827 6.74619 110.308 7.0534C110.794 7.35502 111.146 7.78511 111.363 8.34367H110.216C110.065 8.03646 109.855 7.80745 109.587 7.65664C109.319 7.50583 109.009 7.43043 108.657 7.43043C108.272 7.43043 107.928 7.517 107.627 7.69016C107.325 7.86331 107.088 8.11187 106.914 8.43583C106.747 8.7598 106.663 9.13682 106.663 9.56691C106.663 9.997 106.747 10.374 106.914 10.698C107.088 11.022 107.325 11.2733 107.627 11.452C107.928 11.6252 108.272 11.7118 108.657 11.7118C109.009 11.7118 109.319 11.6364 109.587 11.4856C109.855 11.3348 110.065 11.1057 110.216 10.7985H111.363C111.146 11.3571 110.794 11.7872 110.308 12.0888C109.827 12.3904 109.277 12.5412 108.657 12.5412C108.11 12.5412 107.61 12.4156 107.157 12.1642C106.705 11.9073 106.345 11.5526 106.077 11.1002C105.814 10.6477 105.683 10.1366 105.683 9.56691ZM115.137 12.5496C114.596 12.5496 114.096 12.4239 113.638 12.1726C113.185 11.9157 112.825 11.561 112.557 11.1085C112.294 10.6505 112.163 10.1366 112.163 9.56691C112.163 8.99718 112.294 8.4861 112.557 8.03367C112.825 7.58124 113.185 7.22935 113.638 6.97799C114.096 6.72106 114.596 6.59259 115.137 6.59259C115.685 6.59259 116.185 6.72106 116.637 6.97799C117.095 7.22935 117.455 7.58124 117.718 8.03367C117.98 8.4861 118.112 8.99718 118.112 9.56691C118.112 10.1366 117.98 10.6505 117.718 11.1085C117.455 11.561 117.095 11.9157 116.637 12.1726C116.185 12.4239 115.685 12.5496 115.137 12.5496ZM115.137 11.7202C115.523 11.7202 115.866 11.6336 116.168 11.4604C116.469 11.2817 116.704 11.0303 116.872 10.7064C117.045 10.3768 117.131 9.997 117.131 9.56691C117.131 9.13682 117.045 8.7598 116.872 8.43583C116.704 8.11187 116.469 7.86331 116.168 7.69016C115.866 7.517 115.523 7.43043 115.137 7.43043C114.752 7.43043 114.408 7.517 114.107 7.69016C113.805 7.86331 113.568 8.11187 113.395 8.43583C113.227 8.7598 113.143 9.13682 113.143 9.56691C113.143 9.997 113.227 10.3768 113.395 10.7064C113.568 11.0303 113.805 11.2817 114.107 11.4604C114.408 11.6336 114.752 11.7202 115.137 11.7202ZM120.953 6.66799C121.573 6.66799 122.115 6.78808 122.579 7.02826C123.048 7.26286 123.408 7.60358 123.66 8.05043C123.917 8.49169 124.045 9.00835 124.045 9.60043C124.045 10.1925 123.917 10.7064 123.66 11.142C123.408 11.5777 123.048 11.9129 122.579 12.1475C122.115 12.3765 121.573 12.491 120.953 12.491H119.052V6.66799H120.953ZM120.953 11.7118C121.635 11.7118 122.157 11.5275 122.52 11.1588C122.883 10.7902 123.065 10.2707 123.065 9.60043C123.065 8.92457 122.883 8.39673 122.52 8.01691C122.157 7.63709 121.635 7.44718 120.953 7.44718H120.007V11.7118H120.953ZM125.947 7.4388V9.14799H127.958V9.92718H125.947V11.7118H128.209V12.491H124.992V6.65962H128.209V7.4388H125.947ZM129.771 12.5496C129.598 12.5496 129.452 12.491 129.335 12.3737C129.218 12.2564 129.159 12.1111 129.159 11.938C129.159 11.7648 129.218 11.6196 129.335 11.5023C129.452 11.385 129.598 11.3264 129.771 11.3264C129.938 11.3264 130.081 11.385 130.198 11.5023C130.315 11.6196 130.374 11.7648 130.374 11.938C130.374 12.1111 130.315 12.2564 130.198 12.3737C130.081 12.491 129.938 12.5496 129.771 12.5496ZM129.771 9.0307C129.598 9.0307 129.452 8.97205 129.335 8.85475C129.218 8.73745 129.159 8.59223 129.159 8.41907C129.159 8.24592 129.218 8.1007 129.335 7.9834C129.452 7.8661 129.598 7.80745 129.771 7.80745C129.938 7.80745 130.081 7.8661 130.198 7.9834C130.315 8.1007 130.374 8.24592 130.374 8.41907C130.374 8.59223 130.315 8.73745 130.198 8.85475C130.081 8.97205 129.938 9.0307 129.771 9.0307Z" fill="#BABABA"/>
</svg>
